<svg width="16" height="16" viewBox="0 0 16 16" fill="none" xmlns="http://www.w3.org/2000/svg">
<g clip-path="url(#clip0_412_16)">
<path opacity="0.3" d="M8 2.76001L4 4.26001V7.39334C4 10.06 5.7 12.5267 8 13.28C10.3 12.5267 12 10.0667 12 7.39334V4.26001L8 2.76001ZM10.6667 8.66668H9V10.3333H7V8.66668H5.33333V6.66668H7V5.00001H9V6.66668H10.6667V8.66668Z" fill="#058F66"/>
<path d="M7.00001 8.66671H5.33334V6.66671H7.00001V5.00004H9.00001V6.66671H10.6667V8.66671H9.00001V10.3334H7.00001V8.66671ZM8.00001 1.33337L2.66667 3.33337V7.39337C2.66667 10.76 4.94001 13.9 8.00001 14.6667C11.06 13.9 13.3333 10.76 13.3333 7.39337V3.33337L8.00001 1.33337ZM12 7.39337C12 10.06 10.3 12.5267 8.00001 13.28C5.70001 12.5267 4.00001 10.0667 4.00001 7.39337V4.26004L8.00001 2.76004L12 4.26004V7.39337Z" fill="#058F66"/>
</g>
<defs>
<clipPath id="clip0_412_16">
<rect width="16" height="16" fill="white"/>
</clipPath>
</defs>
</svg>
