<svg width="16" height="16" viewBox="0 0 16 16" fill="none" xmlns="http://www.w3.org/2000/svg">
<g clip-path="url(#clip0_435_2)">
<path opacity="0.3" d="M7.99999 2.68005C5.06666 2.68005 2.67999 5.06672 2.67999 8.00005C2.67999 10.9334 5.06666 13.3201 7.99999 13.3201C10.9333 13.3201 13.32 10.9334 13.32 8.00005C13.32 5.06672 10.9333 2.68005 7.99999 2.68005ZM7.59333 12.6667V9.00005H5.49999L8.49999 3.33339V7.00005H10.5L7.59333 12.6667Z" fill="#058F66"/>
<path d="M8 1.34668C4.32666 1.34668 1.34666 4.32668 1.34666 8.00001C1.34666 11.6733 4.32666 14.6533 8 14.6533C11.6733 14.6533 14.6533 11.6733 14.6533 8.00001C14.6533 4.32668 11.6733 1.34668 8 1.34668ZM8 13.32C5.06666 13.32 2.68 10.9333 2.68 8.00001C2.68 5.06668 5.06666 2.68001 8 2.68001C10.9333 2.68001 13.32 5.06668 13.32 8.00001C13.32 10.9333 10.9333 13.32 8 13.32ZM8.5 3.33335L5.5 9.00001H7.59333V12.6667L10.5 7.00001H8.5V3.33335Z" fill="#058F66"/>
</g>
<defs>
<clipPath id="clip0_435_2">
<rect width="16" height="16" fill="white"/>
</clipPath>
</defs>
</svg>
